<svg width="12" height="120" viewBox="0 0 12 120" xmlns="http://www.w3.org/2000/svg"><title>upperquad-logotype</title><g fill="#000" fill-rule="evenodd"><path d="M5.626 51.966c-1.135 0-2.57-.38-3.418-1.248-1.05-1.054-.824-1.99-.824-2.19 0-1.32 1.764-3.308 4.69-3.308.675 0 1.96.072 2.96.67-.956.54-1.886 1.46-1.947 2.677-.037.748.155 1.457.8 1.94.457.344 1 .35 1.294.292-.76.654-1.91 1.166-3.554 1.166m4.404-5.09c0 .002.002.003.002.003l.048.09c.17.355.462 1.257.295 1.938-.047.194-.106.384-.18.555l-.003.005c-.014.032-.03.063-.044.093-.006.014-.012.027-.02.04-.228.442-.58.717-1.132.527-.49-.17-.778-.65-.778-1.14 0-.918.904-1.617 1.8-2.127.005.006.01.01.012.017m-.76-4.68v.498c0 .075.066.068.077.068.775 0 1.527.335 1.527 1.233 0 .55-.256.894-.682 1.205-.303-.396-.66-.726-1.06-1.007-.935-.67-2.03-.89-3.102-.89-2.01 0-3.395.847-4.246 1.807-.982 1.118-1.18 2.323-1.18 3.35 0 1.475.286 2.862 1.874 4.178 1.273 1.07 2.612 1.228 3.53 1.228 2.097 0 3.664-1.16 4.197-1.986.76-1.14.982-2.46.982-3.24 0-.878-.123-1.608-.342-2.224 1.59-1.208.993-2.988.655-3.412-.482-.604-1.16-.868-2.15-.868-.01 0-.08-.015-.08.06M2.32 118.672c-.4 0-.712.09-.712.762v.4c0 .09-.045.134-.136.134H.915c-.068 0-.113-.045-.113-.135 0-.132.067-1.562.067-2.253 0-.536-.068-1.858-.068-1.992 0-.11.045-.154.133-.154h.537c.067 0 .136.044.136.133v.314c0 .714.22.96.404.984.287.044 1.044.02 1.872.02h.92c.735 0 2.52-.043 2.835-.043.622-.022 1.314-.155 1.783-.512.694-.515.964-1.475.964-2.077 0-.74-.29-1.565-.74-2.03-.58-.63-1.427-.74-2.322-.74H4.242c-1.05 0-1.785.044-2.034.09-.38.045-.6.27-.6.96v.245c0 .09-.07.136-.18.136H.934c-.066 0-.133-.046-.133-.135 0-.112.067-1.36.067-1.943 0-.38-.068-1.496-.068-1.63 0-.114.067-.155.154-.155h.495c.09 0 .158.04.158.133v.2c0 .78.355.85.6.917.18.045 1.88.045 2.146.045.203 0 2.682.044 3.24.067 1.16.087 2.078.4 2.747 1.227.535.6.847 1.518.847 2.97 0 .85-.088 1.564-.29 2.078-.4 1.005-1.004 1.517-1.898 1.766-.65.155-1.607.222-3.528.222H2.32zM5.85 101.557c.09-.2.134-.582.134-1.163 0-.894-.512-1.717-1.18-2.076-.38-.202-.674-.247-1.186-.247-1.586 0-2.146 1.81-2.146 2.525 0 .246 0 .76.09.962h4.29zm-1.538 1.698c-.92 0-1.992 0-2.413.043-.225.022-.292.178-.292.983v.315c0 .088-.045.133-.136.133H.915c-.068 0-.113-.045-.113-.133 0-.133.067-1.678.067-2.147 0-.27-.068-1.163-.068-1.63 0-1.92.18-2.702.715-3.527.47-.717 1.272-1.14 2.077-1.14 1.9 0 3.06 1.406 3.06 3.908 0 .626-.02 1.206-.088 1.5h.582c.67 0 2.387 0 2.59-.024.292-.022.446-.224.446-.67v-.65c0-.088.066-.133.134-.133h.537c.07 0 .132.046.132.157 0 .18-.063 1.476-.063 2.21 0 .56.063 1.878.063 2.036 0 .09-.063.133-.2.133h-.47c-.088 0-.133-.066-.133-.133v-.58c0-.427-.067-.562-.445-.583-.247-.022-2.125-.065-3.8-.065H4.313zM5.85 89.433c.09-.202.134-.578.134-1.162 0-.893-.512-1.72-1.18-2.076-.38-.202-.674-.244-1.186-.244-1.586 0-2.146 1.81-2.146 2.523 0 .246 0 .758.09.96h4.29zM4.313 91.13c-.92 0-1.992 0-2.413.045-.225.022-.292.18-.292.983v.314c0 .087-.045.133-.136.133H.915c-.068 0-.113-.046-.113-.133 0-.133.067-1.678.067-2.145C.87 90.06.8 89.163.8 88.695c0-1.92.18-2.703.715-3.528.47-.715 1.272-1.14 2.077-1.14 1.9 0 3.06 1.408 3.06 3.908 0 .627-.02 1.207-.088 1.498h.582c.67 0 2.387 0 2.59-.024.292-.023.446-.224.446-.67v-.646c0-.088.066-.133.134-.133h.537c.07 0 .132.046.132.156 0 .177-.063 1.472-.063 2.21 0 .56.063 1.876.063 2.034 0 .088-.063.134-.2.134h-.47c-.088 0-.133-.067-.133-.134v-.58c0-.425-.067-.56-.445-.583-.247-.022-2.125-.068-3.8-.068H4.313zM5.36 77.203c0-.133-.067-1.452-.116-1.63-.154-.583-.466-.807-1.157-.807-.09 0-.112-.022-.112-.11l.022-.493c0-.09.045-.158.133-.134.203.044 1.385.044 1.587.044.49 0 1.185-.07 1.476-.09.088 0 .11.045.11.112l.045.47c0 .067 0 .113-.088.134-.562.11-.92.248-1.052.827-.157.67-.157 1.452-.157 1.676h.76c.783 0 2.078-.047 2.368-.047 1.05 0 1.12-.648 1.12-1.606 0-.984-.025-1.61-.626-2.368-.137-.18-1.14-.96-1.497-1.184-.157-.112-.18-.225-.136-.293l.202-.357c.02-.045.088-.088.154-.067l2.367.808c.112.045.224.154.224.246 0 .065-.02.4-.042 1.317 0 .895-.022 2.368-.022 4.715 0 .2.022.603.022 1.003.02.38.042.762.042.894 0 .113-.064.135-.155.135h-.515c-.088 0-.133-.044-.133-.158v-.202c0-1.05-.088-1.117-.402-1.117H5.024c-1.185 0-2.637.025-2.858.048-.47.065-.558.198-.558 1.096v.22c0 .07-.045.09-.157.09H.916c-.046 0-.113-.02-.113-.112 0-.332.067-1.562.067-1.897L.846 73.36c0-.225-.045-.514-.045-.602 0-.046.045-.09.315-.135.2-.044 2.12-.67 2.273-.715.09-.022.14-.022.16.025l.156.356c.024.044.024.134-.09.198-.065.047-1.317 1.118-1.674 1.496-.246.27-.334.628-.334.85l-.045 2.37H5.36zM5.917 64.185c.024-.155.046-.38.046-.67 0-2.48-1.742-2.858-2.324-2.858-.672 0-1.273.334-1.542.738-.378.602-.58 1.227-.58 2.12 0 .336.09.67.494.67h3.905zm-1.473 1.697H2.3c-.45.022-.692.225-.692.85v.222c0 .068-.07.09-.157.09H.916c-.068 0-.113-.043-.113-.134 0-.11.067-1.496.067-1.897C.87 64.743.8 62.8.8 62.51c0-1.34.38-2.345.873-2.904.47-.49 1.114-.783 1.627-.783 1.545 0 2.436.873 3.064 2.638h.042c.112-.514.803-.962 2.1-1.874.446-.314 1.12-.83 1.43-1.256.225-.312.246-.602.246-1.002 0-.09.066-.112.203-.112h.445c.09 0 .155.045.155.133 0 .044-.02.223-.042.45 0 .197-.022.465-.022.69 0 .514.022 1.047.043 1.43-.312.422-2.12 1.408-2.457 1.608-1.384.803-1.878 1.137-1.878 2.076 0 .224 0 .426.045.58H9.628c.31-.044.557-.18.557-.626v-.58c0-.09.045-.132.113-.132h.535c.113 0 .155.043.155.176 0 .158-.064 1.366-.064 2.103 0 .56.064 1.696.064 1.85 0 .092-.064.137-.178.137h-.513c-.068 0-.113-.045-.113-.136v-.266c0-.54-.088-.806-.58-.806-1.095-.022-2.41 0-3.775-.022H4.443zM2.41 37.894c-.4 0-.713.09-.713.76v.402c0 .09-.045.135-.136.135h-.557c-.067 0-.112-.044-.112-.134 0-.133.068-1.563.068-2.256 0-.533-.067-1.853-.067-1.986 0-.114.046-.158.134-.158h.537c.067 0 .137.044.137.133v.314c0 .713.22.962.403.982.288.044 1.046.02 1.873.02h.918c.738 0 2.525-.04 2.838-.04.624-.025 1.315-.16 1.784-.516.694-.515.964-1.476.964-2.076 0-.737-.29-1.567-.74-2.035-.578-.627-1.427-.737-2.32-.737H4.33c-1.048 0-1.784.046-2.032.088-.38.047-.6.272-.6.96V32c0 .09-.07.134-.182.134h-.492c-.066 0-.133-.044-.133-.134 0-.113.068-1.363.068-1.942 0-.38-.067-1.497-.067-1.634 0-.11.068-.154.156-.154h.494c.087 0 .157.044.157.135v.2c0 .78.355.848.6.914.18.045 1.88.045 2.146.045.203 0 2.682.045 3.238.07 1.163.087 2.08.4 2.75 1.226.534.604.846 1.52.846 2.972 0 .85-.088 1.563-.29 2.076-.4 1.005-1.004 1.52-1.898 1.767-.648.155-1.606.22-3.527.22H2.41zM6.341 19.452c-.31.09-3.66 1.142-3.84 1.185-.134.044-.223.067-.223.134 0 .07.068.113.248.18.178.068 3.592 1.43 3.817 1.54v-3.038zm.716 3.375c.27.088 2.122.805 2.39.892.447.134.74.068.74-.403l-.002-.56c0-.132.067-.155.158-.155h.49c.09 0 .155.023.155.135 0 .178-.063 1.364-.063 1.72 0 .425.064 1.54.064 1.743 0 .09-.112.09-.2.09h-.47c-.088 0-.133 0-.133-.09v-.315c0-.378-.223-.738-.47-.915-.18-.156-2.86-1.294-3.976-1.83-.314-.157-3.353-1.476-3.73-1.61-.135-.043-.38-.178-.447-.02-.045.044-.157.11-.224.088-.046.022-.114-.023-.16-.223-.063-.424-.466-1.05-.646-1.25-.09-.047-.157-.136-.157-.27 0-.135.09-.18.247-.222.894-.313 4.087-1.453 4.982-1.743 1.115-.335 3.75-1.295 3.975-1.455.403-.287.604-.665.604-1.045v-.427c0-.09.067-.11.134-.11h.47c.066 0 .2.02.2.155 0 .27-.064 1.453-.064 1.965 0 .423.064 1.74.064 2.034 0 .156-.112.177-.2.177h-.47c-.067 0-.133-.02-.133-.113v-.356c0-.265-.202-.356-.38-.356-.448.09-2.233.693-2.748.873v3.597zM5.782 8.644c.182 0 2.502-.024 3.218-.045.29 0 .535-.07.805-.27.312-.222.468-.827.468-1.34 0-1.43-.713-2.768-1.54-3.44-.672-.538-1.72-.847-2.748-.847-1.206-.09-2.433.446-3.104 1.047-.847.783-1.407 2.012-1.407 3.553 0 .313 0 .782.157 1.004.11.224.29.292.536.313.603.024 2.367.024 2.613.024H5.78zM4.4 10.364c-.38 0-2.054.044-2.413.088-.202.022-.378.223-.378.626v.825c0 .07-.047.09-.158.09H.936c-.088 0-.133-.02-.133-.11 0-.157.067-1.833.067-2.26 0-.378-.067-1.852-.067-2.343 0-2.1.133-3.595 1.318-4.936C2.995 1.36 4.064.8 5.72.8c1.696 0 2.724.315 3.775 1.343 1.43 1.386 1.473 4.108 1.473 4.734 0 .403-.042 2.66-.042 2.972 0 .29.064 1.965.064 2.076 0 .088-.043.114-.2.114h-.49c-.068 0-.113-.026-.113-.114v-.982c0-.29-.247-.47-.358-.492-.2-.044-3.24-.09-4.38-.09H4.4z"/></g></svg>