<svg width="31" height="27" viewBox="0 0 31 27" xmlns="http://www.w3.org/2000/svg" xmlns:xlink="http://www.w3.org/1999/xlink"><title>uq-logo</title><defs><path id="a" d="M0 23.306V0h12.748v23.306H0z"/><path id="c" d="M9.982 26.124h20.63V.004H9.98v26.12z"/></defs><g fill="none" fill-rule="evenodd"><mask id="b" fill="#fff"><use xlink:href="#a"/></mask><path d="M4.94 19.87c-.935-1.254-1.456-2.962-1.456-4.882l.03-.83V1.08H0V0h12.748v1.08H8.29v13.984c0 1.535 0 4.39.135 5.29.193 1.36.685 2.325 1.592 2.952-1.862-.695-4.082-2.142-5.076-3.436" fill="#000" mask="url(#b)"/><mask id="d" fill="#fff"><use xlink:href="#c"/></mask><path d="M15.494 22.745c-2.848-.01-4.45-1.538-4.45-3.28 0-1.463 1.04-2.535 2.425-2.535 1.396 0 2.48.93 3.356 3.054.41.953.693 1.57.823 1.85.042.077.107.207.216.445-.185.13-1.257.465-2.372.465zM30.61 1.087V.004H17.867v1.083h4.45V15.24c0 2.22-.195 3.228-1.007 4.55-.022.042-.044.064-.055.085-1.82-3.075-3.725-4.45-6.39-4.45-2.652 0-4.883 1.678-4.883 3.866 0 .596.022 1.224.487 2.134 1.05 2.1 4.05 2.62 5.12 2.62 1.138 0 2.243-.108 3.304-.324 1.473 1.537 3.346 2.404 5.307 2.404 1.127 0 2.166-.282 3.14-.77 2.34-1.223 3.174-2.858 3.206-6.237v-.28h-.833v.324c0 1.29-.185 2.36-.488 3.163-.498 1.223-2.025 2.263-3.313 2.263-1.343 0-2.556-.834-3.238-2.144 1.245-.64 2.274-1.45 3-2.393.93-1.257 1.45-2.97 1.45-4.885l-.032-.834V1.088h3.52z" fill="#000" mask="url(#d)"/></g></svg>